<svg xmlns="http://www.w3.org/2000/svg"  xmlns:xlink="http://www.w3.org/1999/xlink"  width="34" height="42" viewBox="0 0 34 42" fill="none"><path d="M17.0075 6.00009C13.7819 5.98918 10.6377 7.00743 8.03653 8.90534C5.43536 10.8033 3.51423 13.4809 2.55519 16.5451C2.54233 16.5869 2.53947 16.6311 2.54685 16.6742C2.55423 16.7174 2.57164 16.7582 2.59769 16.7934C2.62375 16.8286 2.65772 16.8573 2.6969 16.8771C2.73608 16.897 2.77938 16.9074 2.82334 16.9076H8.62456C8.67628 16.908 8.7271 16.8942 8.77139 16.8676C8.81568 16.8411 8.85172 16.8028 8.87552 16.7571C9.67527 15.2611 10.8773 14.0158 12.3473 13.1603C13.8173 12.3047 15.4975 11.8726 17.2001 11.9122C22.1075 12.0011 25.9062 16.0166 26.0832 20.6444C26.1614 22.7024 25.535 24.7259 24.3064 26.3834C23.0779 28.041 21.3201 29.2344 19.3209 29.7683C17.3217 30.3022 15.1995 30.1449 13.3019 29.3222C11.4042 28.4994 9.84361 27.06 8.87552 25.2396C8.85199 25.1945 8.81649 25.1566 8.77286 25.13C8.72923 25.1035 8.67913 25.0894 8.628 25.0891H2.82334C2.77938 25.0894 2.73608 25.0998 2.6969 25.1196C2.65772 25.1395 2.62375 25.1681 2.59769 25.2034C2.57164 25.2386 2.55423 25.2794 2.54685 25.3225C2.53947 25.3656 2.54233 25.4099 2.55519 25.4517C3.3821 28.099 4.93019 30.4665 7.02759 32.2914C9.12499 34.1163 11.6896 35.3272 14.4369 35.7897C17.1841 36.2523 20.0064 35.9483 22.5905 34.9115C25.1746 33.8748 27.4194 32.1458 29.0757 29.9166C30.732 27.6874 31.7349 25.0451 31.9733 22.2831C32.2116 19.5211 31.676 16.7474 30.4259 14.2699C29.1758 11.7924 27.2601 9.70809 24.8914 8.24826C22.5227 6.78844 19.7938 6.01025 17.0075 6.00009" fill="#1DCF9F"></path><path fill-rule="evenodd" clip-rule="evenodd" d="M8.41324 23.8275H1.30105C1.26137 23.8275 1.22208 23.8195 1.18545 23.804C1.14881 23.7886 1.11555 23.7658 1.08757 23.7372C1.05959 23.7086 1.03746 23.6747 1.02243 23.6373C1.0074 23.6 0.999779 23.56 1 23.5197V18.6497C0.999779 18.6093 1.0074 18.5693 1.02243 18.532C1.03746 18.4946 1.05959 18.4607 1.08757 18.4321C1.11555 18.4035 1.14881 18.3808 1.18545 18.3653C1.22208 18.3498 1.26137 18.3418 1.30105 18.3418H8.41324C8.45291 18.3418 8.4922 18.3498 8.52884 18.3653C8.56547 18.3808 8.59874 18.4035 8.62671 18.4321C8.65469 18.4607 8.67683 18.4946 8.69186 18.532C8.70689 18.5693 8.71451 18.6093 8.71428 18.6497V23.5197C8.71451 23.56 8.70689 23.6 8.69186 23.6373C8.67683 23.6747 8.65469 23.7086 8.62671 23.7372C8.59874 23.7658 8.56547 23.7886 8.52884 23.804C8.4922 23.8195 8.45291 23.8275 8.41324 23.8275" fill="#210F60"></path></svg>