<svg xmlns="http://www.w3.org/2000/svg" width="512" height="512" viewBox="0 0 24 24"><path fill="#009393" d="m12 20.143l-8.57-8.456L6.7 6.429h10.603l3.27 5.258zm.857-7.714v-1.046c1.543.077 2.983.377 3.429.767c-.519.454-2.374.784-4.286.784s-3.767-.33-4.286-.784c.442-.39 1.886-.686 3.429-.771v1.05zm-5.143-.283v.63c.442.39 1.882.686 3.429.771v2.31h1.714v-2.314c1.543-.077 2.987-.377 3.429-.767V11.52c-.442-.39-1.886-.69-3.429-.771v-.892h2.572V8.572H8.572v1.285h2.571v.892c-1.547.081-2.987.381-3.429.771z"/></svg>