<svg width="210" height="28" viewBox="0 0 210 28" fill="none" xmlns="http://www.w3.org/2000/svg">
<path d="M11.072 22.08C4.41599 22.08 -6.67572e-06 17.728 -6.67572e-06 11.04C-6.67572e-06 4.35201 4.41599 9.53674e-06 11.072 9.53674e-06C17.12 9.53674e-06 21.344 3.20001 21.344 8.32001V8.76801H17.536V8.32001C17.536 5.05601 15.456 3.29601 11.104 3.29601C6.07999 3.29601 3.64799 5.69601 3.64799 11.04C3.64799 16.384 6.07999 18.752 11.104 18.752C15.456 18.752 17.536 17.024 17.536 13.728V13.312H21.344V13.728C21.344 18.88 17.152 22.08 11.072 22.08ZM32.018 22.08C26.738 22.08 23.186 18.72 23.186 13.824C23.186 8.86401 26.738 5.53601 32.018 5.53601C37.33 5.53601 40.882 8.86401 40.882 13.824C40.882 18.72 37.33 22.08 32.018 22.08ZM32.018 19.008C35.89 19.008 37.49 17.184 37.49 13.824C37.49 10.432 35.89 8.57601 32.018 8.57601C28.178 8.57601 26.578 10.432 26.578 13.824C26.578 17.184 28.178 19.008 32.018 19.008ZM46.846 21.76H43.39V5.85601H46.558V10.656H46.75C47.166 8.00001 48.894 5.53601 52.862 5.53601C56.478 5.53601 58.43 7.74401 58.878 10.784H59.07C59.486 8.06401 61.278 5.53601 65.31 5.53601C69.438 5.53601 71.518 8.35201 71.518 12.192V21.76H68.094V13.12C68.094 9.98401 66.846 8.64001 63.774 8.64001C60.382 8.64001 59.166 10.368 59.166 13.888V21.76H55.742V13.12C55.742 9.98401 54.526 8.64001 51.454 8.64001C48.03 8.64001 46.846 10.368 46.846 13.888V21.76ZM78.0647 4.00001H74.6087V0.320009H78.0647V4.00001ZM78.0647 21.76H74.6087V5.85601H78.0647V21.76ZM84.721 21.76H81.265V5.85601H84.433V10.784H84.657C85.137 8.09601 87.249 5.53601 91.281 5.53601C95.697 5.53601 97.873 8.51201 97.873 12.192V21.76H94.417V13.12C94.417 10.144 93.073 8.64001 89.777 8.64001C86.289 8.64001 84.721 10.432 84.721 13.888V21.76ZM107.864 20.32C103.128 20.32 100.312 17.344 100.312 12.928C100.312 8.51201 103.256 5.53601 108.088 5.53601C111.416 5.53601 113.912 7.04001 114.488 9.82401H114.68V5.85601H117.848V19.904C117.848 25.248 114.52 27.52 109.304 27.52C104.6 27.52 101.336 25.312 101.336 21.472H104.76C104.76 23.776 106.104 24.64 109.496 24.64C113.112 24.64 114.424 23.648 114.424 20.096V16.192H114.2C113.624 18.592 111.48 20.32 107.864 20.32ZM103.8 12.928C103.8 16.192 105.72 17.344 108.984 17.344C112.504 17.344 114.424 15.872 114.424 13.056V12.608C114.424 9.92001 112.44 8.54401 109.08 8.54401C105.752 8.54401 103.8 9.66401 103.8 12.928ZM135.507 22.08C129.107 22.08 125.843 19.264 125.843 14.752V14.56H129.299V15.072C129.299 17.632 130.803 18.912 135.507 18.912C139.603 18.912 141.043 18.016 141.043 16C141.043 14.144 139.955 13.44 137.235 12.928L131.987 12.064C128.371 11.424 125.811 9.76001 125.811 6.24001C125.811 3.13601 128.371 9.53674e-06 135.027 9.53674e-06C141.299 9.53674e-06 144.147 3.13601 144.147 7.32801V7.52001H140.723V7.10401C140.723 4.48001 139.155 3.16801 134.707 3.16801C130.803 3.16801 129.267 4.12801 129.267 6.04801C129.267 7.90401 130.355 8.51201 132.883 9.05601L138.099 9.95201C142.387 10.72 144.499 12.672 144.499 15.808C144.499 19.072 141.843 22.08 135.507 22.08ZM155.08 22.08C149.8 22.08 146.248 18.72 146.248 13.824C146.248 8.86401 149.8 5.53601 155.08 5.53601C160.392 5.53601 163.944 8.86401 163.944 13.824C163.944 18.72 160.392 22.08 155.08 22.08ZM155.08 19.008C158.952 19.008 160.552 17.184 160.552 13.824C160.552 10.432 158.952 8.57601 155.08 8.57601C151.24 8.57601 149.64 10.432 149.64 13.824C149.64 17.184 151.24 19.008 155.08 19.008ZM174.58 22.08C169.3 22.08 165.748 18.72 165.748 13.824C165.748 8.86401 169.3 5.53601 174.58 5.53601C179.892 5.53601 183.444 8.86401 183.444 13.824C183.444 18.72 179.892 22.08 174.58 22.08ZM174.58 19.008C178.452 19.008 180.052 17.184 180.052 13.824C180.052 10.432 178.452 8.57601 174.58 8.57601C170.74 8.57601 169.14 10.432 169.14 13.824C169.14 17.184 170.74 19.008 174.58 19.008ZM189.408 21.76H185.952V5.85601H189.12V10.784H189.344C189.824 8.09601 191.936 5.53601 195.968 5.53601C200.384 5.53601 202.56 8.51201 202.56 12.192V21.76H199.104V13.12C199.104 10.144 197.76 8.64001 194.464 8.64001C190.976 8.64001 189.408 10.432 189.408 13.888V21.76ZM209.416 14.72H206.056C206.056 11.616 205.544 5.02401 205.544 2.56001V0.320009H209.928V2.56001C209.928 5.02401 209.416 11.648 209.416 14.72ZM209.672 21.76H205.768V17.024H209.672V21.76Z" fill="#013941"/>
</svg>
